<svg xmlns="http://www.w3.org/2000/svg" xmlns:xlink="http://www.w3.org/1999/xlink" contentStyleType="text/css" data-diagram-type="DESCRIPTION" height="959px" preserveAspectRatio="none" style="width:993px;height:959px;background:#FFFFFF;" version="1.1" viewBox="0 0 993 959" width="993px" zoomAndPan="magnify"><?plantuml 1.2026.6?><defs/><g><g class="title" data-source-line="2"><text fill="#000000" font-family="Verdana" font-size="22" font-weight="700" lengthAdjust="spacing" textLength="470.4756" x="260.2622" y="35.4209">mini-pg-gateway System Architecture</text></g><!--cluster Client--><g class="cluster" data-qualified-name="Client" data-source-line="4" id="ent0001"><path d="M727.5,57.6094 L774.5264,57.6094 A3.75,3.75 0 0 1 777.0264,60.1094 L784.0264,79.9063 L868.5,79.9063 A2.5,2.5 0 0 1 871,82.4063 L871,168.7094 A2.5,2.5 0 0 1 868.5,171.2094 L727.5,171.2094 A2.5,2.5 0 0 1 725,168.7094 L725,60.1094 A2.5,2.5 0 0 1 727.5,57.6094" fill="#FFFFFF" style="stroke:#000000;stroke-width:1;"/><line style="stroke:#000000;stroke-width:1;" x1="725" x2="784.0264" y1="79.9063" y2="79.9063"/><text fill="#000000" font-family="Verdana" font-size="14" font-weight="700" lengthAdjust="spacing" textLength="46.0264" x="729" y="72.6045">Client</text></g><!--cluster Gateway Server--><g class="cluster" data-qualified-name="Gateway Server" data-source-line="8" id="ent0003"><path d="M13.5,57.6094 L140.0146,57.6094 A3.75,3.75 0 0 1 142.5146,60.1094 L149.5146,79.9063 L559.5,79.9063 A2.5,2.5 0 0 1 562,82.4063 L562,310.2994 A2.5,2.5 0 0 1 559.5,312.7994 L13.5,312.7994 A2.5,2.5 0 0 1 11,310.2994 L11,60.1094 A2.5,2.5 0 0 1 13.5,57.6094" fill="#FFFFFF" style="stroke:#000000;stroke-width:1;"/><line style="stroke:#000000;stroke-width:1;" x1="11" x2="149.5146" y1="79.9063" y2="79.9063"/><text fill="#000000" font-family="Verdana" font-size="14" font-weight="700" lengthAdjust="spacing" textLength="125.5146" x="15" y="72.6045">Gateway Server</text></g><!--cluster Storage--><g class="cluster" data-qualified-name="Storage" data-source-line="17" id="ent0010"><path d="M216.5,592.3994 L279.7617,592.3994 A3.75,3.75 0 0 1 282.2617,594.8994 L289.2617,614.6963 L975.5,614.6963 A2.5,2.5 0 0 1 978,617.1963 L978,942.4894 A2.5,2.5 0 0 1 975.5,944.9894 L216.5,944.9894 A2.5,2.5 0 0 1 214,942.4894 L214,594.8994 A2.5,2.5 0 0 1 216.5,592.3994" fill="#FFFFFF" style="stroke:#000000;stroke-width:1;"/><line style="stroke:#000000;stroke-width:1;" x1="214" x2="289.2617" y1="614.6963" y2="614.6963"/><text fill="#000000" font-family="Verdana" font-size="14" font-weight="700" lengthAdjust="spacing" textLength="62.2617" x="218" y="607.3945">Storage</text></g><!--cluster MySQL\n(pg_gateway)--><g class="cluster" data-qualified-name="Storage.MySQL.n.pg_gateway." data-source-line="18" id="ent0011"><path d="M246,653.3994 C246,643.3994 402,643.3994 402,643.3994 C402,643.3994 558,643.3994 558,653.3994 L558,902.9894 C558,912.9894 402,912.9894 402,912.9894 C402,912.9894 246,912.9894 246,902.9894 L246,653.3994" fill="#FFFFFF" style="stroke:#000000;stroke-width:1;"/><path d="M246,653.3994 C246,663.3994 402,663.3994 402,663.3994 C402,663.3994 558,663.3994 558,653.3994" fill="none" style="stroke:#000000;stroke-width:1;"/><text fill="#000000" font-family="Verdana" font-size="14" font-weight="700" lengthAdjust="spacing" textLength="53.9629" x="375.0186" y="678.3945">MySQL</text><text fill="#000000" font-family="Verdana" font-size="14" font-weight="700" lengthAdjust="spacing" textLength="107.0029" x="348.4985" y="694.6914">(pg_gateway)</text></g><!--cluster Log Files--><g class="cluster" data-qualified-name="Storage.Log Files" data-source-line="23" id="ent0015"><path d="M600.5,674.3994 L671.9238,674.3994 A3.75,3.75 0 0 1 674.4238,676.8994 L681.4238,696.6963 L943.5,696.6963 A2.5,2.5 0 0 1 946,699.1963 L946,785.1894 A2.5,2.5 0 0 1 943.5,787.6894 L600.5,787.6894 A2.5,2.5 0 0 1 598,785.1894 L598,676.8994 A2.5,2.5 0 0 1 600.5,674.3994" fill="#FFFFFF" style="stroke:#000000;stroke-width:1;"/><line style="stroke:#000000;stroke-width:1;" x1="598" x2="681.4238" y1="696.6963" y2="696.6963"/><text fill="#000000" font-family="Verdana" font-size="14" font-weight="700" lengthAdjust="spacing" textLength="70.4238" x="602" y="689.3945">Log Files</text></g><!--entity Test Client\n(client.c)--><g class="entity" data-qualified-name="Client.Test Client.n.client.c." data-source-line="5" id="ent0002"><rect fill="#FFFFFF" height="62.5938" rx="2.5" ry="2.5" style="stroke:#000000;stroke-width:1;" width="114.9287" x="740.54" y="92.6094"/><rect fill="#FFFFFF" height="10" style="stroke:#000000;stroke-width:1;" width="15" x="835.4687" y="97.6094"/><rect fill="#FFFFFF" height="2" style="stroke:#000000;stroke-width:1;" width="4" x="833.4687" y="99.6094"/><rect fill="#FFFFFF" height="2" style="stroke:#000000;stroke-width:1;" width="4" x="833.4687" y="103.6094"/><text fill="#000000" font-family="Verdana" font-size="14" lengthAdjust="spacing" textLength="74.9287" x="755.54" y="125.6045">Test Client</text><text fill="#000000" font-family="Verdana" font-size="14" lengthAdjust="spacing" textLength="61.5234" x="755.54" y="141.9014">(client.c)</text></g><!--entity Main Thread\n(accept loop)--><g class="entity" data-qualified-name="Gateway Server.Main Thread.n.accept loop." data-source-line="9" id="ent0004"><rect fill="#FFFFFF" height="62.5938" rx="2.5" ry="2.5" style="stroke:#000000;stroke-width:1;" width="132.2441" x="26.88" y="92.6094"/><rect fill="#FFFFFF" height="10" style="stroke:#000000;stroke-width:1;" width="15" x="139.1241" y="97.6094"/><rect fill="#FFFFFF" height="2" style="stroke:#000000;stroke-width:1;" width="4" x="137.1241" y="99.6094"/><rect fill="#FFFFFF" height="2" style="stroke:#000000;stroke-width:1;" width="4" x="137.1241" y="103.6094"/><text fill="#000000" font-family="Verdana" font-size="14" lengthAdjust="spacing" textLength="87.1309" x="41.88" y="125.6045">Main Thread</text><text fill="#000000" font-family="Verdana" font-size="14" lengthAdjust="spacing" textLength="92.2441" x="41.88" y="141.9014">(accept loop)</text></g><!--entity Worker Thread 1\n(pthread)--><g class="entity" data-qualified-name="Gateway Server.Worker Thread 1.n.pthread." data-source-line="10" id="ent0005"><rect fill="#FFFFFF" height="62.5938" rx="2.5" ry="2.5" style="stroke:#000000;stroke-width:1;" width="157.708" x="194.15" y="92.6094"/><rect fill="#FFFFFF" height="10" style="stroke:#000000;stroke-width:1;" width="15" x="331.858" y="97.6094"/><rect fill="#FFFFFF" height="2" style="stroke:#000000;stroke-width:1;" width="4" x="329.858" y="99.6094"/><rect fill="#FFFFFF" height="2" style="stroke:#000000;stroke-width:1;" width="4" x="329.858" y="103.6094"/><text fill="#000000" font-family="Verdana" font-size="14" lengthAdjust="spacing" textLength="117.708" x="209.15" y="125.6045">Worker Thread 1</text><text fill="#000000" font-family="Verdana" font-size="14" lengthAdjust="spacing" textLength="66.0078" x="209.15" y="141.9014">(pthread)</text></g><!--entity Worker Thread N\n(pthread)--><g class="entity" data-qualified-name="Gateway Server.Worker Thread N.n.pthread." data-source-line="11" id="ent0006"><rect fill="#FFFFFF" height="62.5938" rx="2.5" ry="2.5" style="stroke:#000000;stroke-width:1;" width="159.2734" x="386.36" y="92.6094"/><rect fill="#FFFFFF" height="10" style="stroke:#000000;stroke-width:1;" width="15" x="525.6334" y="97.6094"/><rect fill="#FFFFFF" height="2" style="stroke:#000000;stroke-width:1;" width="4" x="523.6334" y="99.6094"/><rect fill="#FFFFFF" height="2" style="stroke:#000000;stroke-width:1;" width="4" x="523.6334" y="103.6094"/><text fill="#000000" font-family="Verdana" font-size="14" lengthAdjust="spacing" textLength="119.2734" x="401.36" y="125.6045">Worker Thread N</text><text fill="#000000" font-family="Verdana" font-size="14" lengthAdjust="spacing" textLength="66.0078" x="401.36" y="141.9014">(pthread)</text></g><!--entity Validator\n(validator.c)--><g class="entity" data-qualified-name="Gateway Server.Validator.n.validator.c." data-source-line="12" id="ent0007"><rect fill="#FFFFFF" height="62.5938" rx="2.5" ry="2.5" style="stroke:#000000;stroke-width:1;" width="124.9912" x="30.5" y="234.2094"/><rect fill="#FFFFFF" height="10" style="stroke:#000000;stroke-width:1;" width="15" x="135.4912" y="239.2094"/><rect fill="#FFFFFF" height="2" style="stroke:#000000;stroke-width:1;" width="4" x="133.4912" y="241.2094"/><rect fill="#FFFFFF" height="2" style="stroke:#000000;stroke-width:1;" width="4" x="133.4912" y="245.2094"/><text fill="#000000" font-family="Verdana" font-size="14" lengthAdjust="spacing" textLength="63.2119" x="45.5" y="267.2045">Validator</text><text fill="#000000" font-family="Verdana" font-size="14" lengthAdjust="spacing" textLength="84.9912" x="45.5" y="283.5014">(validator.c)</text></g><!--entity Logger\n(logger.c)--><g class="entity" data-qualified-name="Gateway Server.Logger.n.logger.c." data-source-line="13" id="ent0008"><rect fill="#FFFFFF" height="62.5938" rx="2.5" ry="2.5" style="stroke:#000000;stroke-width:1;" width="107.6689" x="190.17" y="234.2094"/><rect fill="#FFFFFF" height="10" style="stroke:#000000;stroke-width:1;" width="15" x="277.8389" y="239.2094"/><rect fill="#FFFFFF" height="2" style="stroke:#000000;stroke-width:1;" width="4" x="275.8389" y="241.2094"/><rect fill="#FFFFFF" height="2" style="stroke:#000000;stroke-width:1;" width="4" x="275.8389" y="245.2094"/><text fill="#000000" font-family="Verdana" font-size="14" lengthAdjust="spacing" textLength="48.5078" x="205.17" y="267.2045">Logger</text><text fill="#000000" font-family="Verdana" font-size="14" lengthAdjust="spacing" textLength="67.6689" x="205.17" y="283.5014">(logger.c)</text></g><!--entity Mutex\n(shared resource)--><g class="entity" data-qualified-name="Gateway Server.Mutex.n.shared resource." data-source-line="14" id="ent0009"><rect fill="#FFFFFF" height="62.5938" rx="2.5" ry="2.5" style="stroke:#000000;stroke-width:1;" width="164.5439" x="332.73" y="234.2094"/><rect fill="#FFFFFF" height="10" style="stroke:#000000;stroke-width:1;" width="15" x="477.2739" y="239.2094"/><rect fill="#FFFFFF" height="2" style="stroke:#000000;stroke-width:1;" width="4" x="475.2739" y="241.2094"/><rect fill="#FFFFFF" height="2" style="stroke:#000000;stroke-width:1;" width="4" x="475.2739" y="245.2094"/><text fill="#000000" font-family="Verdana" font-size="14" lengthAdjust="spacing" textLength="43.3398" x="347.73" y="267.2045">Mutex</text><text fill="#000000" font-family="Verdana" font-size="14" lengthAdjust="spacing" textLength="124.5439" x="347.73" y="283.5014">(shared resource)</text></g><!--entity blacklist--><g class="entity" data-qualified-name="Storage.MySQL.n.pg_gateway..blacklist" data-source-line="19" id="ent0012"><rect fill="#FFFFFF" height="46.2969" rx="2.5" ry="2.5" style="stroke:#000000;stroke-width:1;" width="97.7227" x="270.14" y="717.3994"/><rect fill="#FFFFFF" height="10" style="stroke:#000000;stroke-width:1;" width="15" x="347.8627" y="722.3994"/><rect fill="#FFFFFF" height="2" style="stroke:#000000;stroke-width:1;" width="4" x="345.8627" y="724.3994"/><rect fill="#FFFFFF" height="2" style="stroke:#000000;stroke-width:1;" width="4" x="345.8627" y="728.3994"/><text fill="#000000" font-family="Verdana" font-size="14" lengthAdjust="spacing" textLength="57.7227" x="285.14" y="750.3945">blacklist</text></g><!--entity daily_limit--><g class="entity" data-qualified-name="Storage.MySQL.n.pg_gateway..daily_limit" data-source-line="20" id="ent0013"><rect fill="#FFFFFF" height="46.2969" rx="2.5" ry="2.5" style="stroke:#000000;stroke-width:1;" width="111.3262" x="403.34" y="717.3994"/><rect fill="#FFFFFF" height="10" style="stroke:#000000;stroke-width:1;" width="15" x="494.6662" y="722.3994"/><rect fill="#FFFFFF" height="2" style="stroke:#000000;stroke-width:1;" width="4" x="492.6662" y="724.3994"/><rect fill="#FFFFFF" height="2" style="stroke:#000000;stroke-width:1;" width="4" x="492.6662" y="728.3994"/><text fill="#000000" font-family="Verdana" font-size="14" lengthAdjust="spacing" textLength="71.3262" x="418.34" y="750.3945">daily_limit</text></g><!--entity transactions--><g class="entity" data-qualified-name="Storage.MySQL.n.pg_gateway..transactions" data-source-line="21" id="ent0014"><rect fill="#FFFFFF" height="46.2969" rx="2.5" ry="2.5" style="stroke:#000000;stroke-width:1;" width="126.3789" x="269.81" y="842.6894"/><rect fill="#FFFFFF" height="10" style="stroke:#000000;stroke-width:1;" width="15" x="376.1889" y="847.6894"/><rect fill="#FFFFFF" height="2" style="stroke:#000000;stroke-width:1;" width="4" x="374.1889" y="849.6894"/><rect fill="#FFFFFF" height="2" style="stroke:#000000;stroke-width:1;" width="4" x="374.1889" y="853.6894"/><text fill="#000000" font-family="Verdana" font-size="14" lengthAdjust="spacing" textLength="86.3789" x="284.81" y="875.6845">transactions</text></g><!--entity YYYYMMDD.log--><g class="entity" data-qualified-name="Storage.Log Files.YYYYMMDD.log" data-source-line="24" id="ent0016"><rect fill="#FFFFFF" height="46.2969" rx="2.5" ry="2.5" style="stroke:#000000;stroke-width:1;" width="145.7178" x="622.14" y="717.3994"/><rect fill="#FFFFFF" height="10" style="stroke:#000000;stroke-width:1;" width="15" x="747.8578" y="722.3994"/><rect fill="#FFFFFF" height="2" style="stroke:#000000;stroke-width:1;" width="4" x="745.8578" y="724.3994"/><rect fill="#FFFFFF" height="2" style="stroke:#000000;stroke-width:1;" width="4" x="745.8578" y="728.3994"/><text fill="#000000" font-family="Verdana" font-size="14" lengthAdjust="spacing" textLength="105.7178" x="637.14" y="750.3945">YYYYMMDD.log</text></g><!--entity error.log--><g class="entity" data-qualified-name="Storage.Log Files.error.log" data-source-line="25" id="ent0017"><rect fill="#FFFFFF" height="46.2969" rx="2.5" ry="2.5" style="stroke:#000000;stroke-width:1;" width="100.2383" x="802.88" y="717.3994"/><rect fill="#FFFFFF" height="10" style="stroke:#000000;stroke-width:1;" width="15" x="883.1183" y="722.3994"/><rect fill="#FFFFFF" height="2" style="stroke:#000000;stroke-width:1;" width="4" x="881.1183" y="724.3994"/><rect fill="#FFFFFF" height="2" style="stroke:#000000;stroke-width:1;" width="4" x="881.1183" y="728.3994"/><text fill="#000000" font-family="Verdana" font-size="14" lengthAdjust="spacing" textLength="60.2383" x="817.88" y="750.3945">error.log</text></g><!--entity Test Client--><g class="entity" data-qualified-name="Test Client" data-source-line="29" id="ent0018"><rect fill="#FFFFFF" height="46.2969" rx="2.5" ry="2.5" style="stroke:#000000;stroke-width:1;" width="114.9287" x="584.54" y="100.7594"/><rect fill="#FFFFFF" height="10" style="stroke:#000000;stroke-width:1;" width="15" x="679.4687" y="105.7594"/><rect fill="#FFFFFF" height="2" style="stroke:#000000;stroke-width:1;" width="4" x="677.4687" y="107.7594"/><rect fill="#FFFFFF" height="2" style="stroke:#000000;stroke-width:1;" width="4" x="677.4687" y="111.7594"/><text fill="#000000" font-family="Verdana" font-size="14" lengthAdjust="spacing" textLength="74.9287" x="599.54" y="133.7545">Test Client</text></g><!--entity Main Thread--><g class="entity" data-qualified-name="Main Thread" data-source-line="29" id="ent0019"><rect fill="#FFFFFF" height="46.2969" rx="2.5" ry="2.5" style="stroke:#000000;stroke-width:1;" width="127.1309" x="578.43" y="242.3594"/><rect fill="#FFFFFF" height="10" style="stroke:#000000;stroke-width:1;" width="15" x="685.5609" y="247.3594"/><rect fill="#FFFFFF" height="2" style="stroke:#000000;stroke-width:1;" width="4" x="683.5609" y="249.3594"/><rect fill="#FFFFFF" height="2" style="stroke:#000000;stroke-width:1;" width="4" x="683.5609" y="253.3594"/><text fill="#000000" font-family="Verdana" font-size="14" lengthAdjust="spacing" textLength="87.1309" x="593.43" y="275.3545">Main Thread</text></g><!--entity Worker Thread 1--><g class="entity" data-qualified-name="Worker Thread 1" data-source-line="30" id="ent0021"><rect fill="#FFFFFF" height="46.2969" rx="2.5" ry="2.5" style="stroke:#000000;stroke-width:1;" width="157.708" x="471.15" y="375.7994"/><rect fill="#FFFFFF" height="10" style="stroke:#000000;stroke-width:1;" width="15" x="608.858" y="380.7994"/><rect fill="#FFFFFF" height="2" style="stroke:#000000;stroke-width:1;" width="4" x="606.858" y="382.7994"/><rect fill="#FFFFFF" height="2" style="stroke:#000000;stroke-width:1;" width="4" x="606.858" y="386.7994"/><text fill="#000000" font-family="Verdana" font-size="14" lengthAdjust="spacing" textLength="117.708" x="486.15" y="408.7945">Worker Thread 1</text></g><!--entity Worker Thread N--><g class="entity" data-qualified-name="Worker Thread N" data-source-line="31" id="ent0023"><rect fill="#FFFFFF" height="46.2969" rx="2.5" ry="2.5" style="stroke:#000000;stroke-width:1;" width="159.2734" x="663.36" y="375.7994"/><rect fill="#FFFFFF" height="10" style="stroke:#000000;stroke-width:1;" width="15" x="802.6334" y="380.7994"/><rect fill="#FFFFFF" height="2" style="stroke:#000000;stroke-width:1;" width="4" x="800.6334" y="382.7994"/><rect fill="#FFFFFF" height="2" style="stroke:#000000;stroke-width:1;" width="4" x="800.6334" y="386.7994"/><text fill="#000000" font-family="Verdana" font-size="14" lengthAdjust="spacing" textLength="119.2734" x="678.36" y="408.7945">Worker Thread N</text></g><!--entity Validator--><g class="entity" data-qualified-name="Validator" data-source-line="32" id="ent0025"><rect fill="#FFFFFF" height="46.2969" rx="2.5" ry="2.5" style="stroke:#000000;stroke-width:1;" width="103.2119" x="498.39" y="483.0994"/><rect fill="#FFFFFF" height="10" style="stroke:#000000;stroke-width:1;" width="15" x="581.6019" y="488.0994"/><rect fill="#FFFFFF" height="2" style="stroke:#000000;stroke-width:1;" width="4" x="579.6019" y="490.0994"/><rect fill="#FFFFFF" height="2" style="stroke:#000000;stroke-width:1;" width="4" x="579.6019" y="494.0994"/><text fill="#000000" font-family="Verdana" font-size="14" lengthAdjust="spacing" textLength="63.2119" x="513.39" y="516.0945">Validator</text></g><!--entity Mutex--><g class="entity" data-qualified-name="Mutex" data-source-line="35" id="ent0029"><rect fill="#FFFFFF" height="46.2969" rx="2.5" ry="2.5" style="stroke:#000000;stroke-width:1;" width="83.3398" x="114.33" y="717.3994"/><rect fill="#FFFFFF" height="10" style="stroke:#000000;stroke-width:1;" width="15" x="177.6698" y="722.3994"/><rect fill="#FFFFFF" height="2" style="stroke:#000000;stroke-width:1;" width="4" x="175.6698" y="724.3994"/><rect fill="#FFFFFF" height="2" style="stroke:#000000;stroke-width:1;" width="4" x="175.6698" y="728.3994"/><text fill="#000000" font-family="Verdana" font-size="14" lengthAdjust="spacing" textLength="43.3398" x="129.33" y="750.3945">Mutex</text></g><!--entity Logger--><g class="entity" data-qualified-name="Logger" data-source-line="36" id="ent0031"><rect fill="#FFFFFF" height="46.2969" rx="2.5" ry="2.5" style="stroke:#000000;stroke-width:1;" width="88.5078" x="698.75" y="483.0994"/><rect fill="#FFFFFF" height="10" style="stroke:#000000;stroke-width:1;" width="15" x="767.2578" y="488.0994"/><rect fill="#FFFFFF" height="2" style="stroke:#000000;stroke-width:1;" width="4" x="765.2578" y="490.0994"/><rect fill="#FFFFFF" height="2" style="stroke:#000000;stroke-width:1;" width="4" x="765.2578" y="494.0994"/><text fill="#000000" font-family="Verdana" font-size="14" lengthAdjust="spacing" textLength="48.5078" x="713.75" y="516.0945">Logger</text></g><!--link Test Client to Main Thread--><g class="link" data-entity-1="ent0018" data-entity-2="ent0019" data-link-type="dependency" data-source-line="29" id="lnk20"><path d="M642,147.3394 C642,173.3894 642,211.1094 642,237.1294" fill="none" id="Test Client-to-Main Thread" style="stroke:#000000;stroke-width:1;"/><polygon fill="#000000" points="642,242.1294,646,233.1294,642,237.1294,638,233.1294,642,242.1294" style="stroke:#000000;stroke-width:1;stroke-linejoin:miter;stroke-miterlimit:10;"/><text fill="#000000" font-family="Verdana" font-size="13" lengthAdjust="spacing" textLength="124.2173" x="643" y="200.2763">TCP (Binary Struct)</text></g><!--link Main Thread to Worker Thread 1--><g class="link" data-entity-1="ent0019" data-entity-2="ent0021" data-link-type="dependency" data-source-line="30" id="lnk22"><path d="M606.87,288.9394 C592.91,299.4794 577.86,313.1794 568,328.7994 C559.13,342.8594 555.4044,356.2129 553.1144,370.4429" fill="none" id="Main Thread-to-Worker Thread 1" style="stroke:#000000;stroke-width:1;"/><polygon fill="#000000" points="552.32,375.3794,557.6991,367.1292,553.1144,370.4429,549.8008,365.8582,552.32,375.3794" style="stroke:#000000;stroke-width:1;stroke-linejoin:miter;stroke-miterlimit:10;"/><text fill="#000000" font-family="Verdana" font-size="13" lengthAdjust="spacing" textLength="109.3447" x="569" y="341.8663">pthread_create()</text></g><!--link Main Thread to Worker Thread N--><g class="link" data-entity-1="ent0019" data-entity-2="ent0023" data-link-type="dependency" data-source-line="31" id="lnk24"><path d="M659.36,289.0994 C677.97,313.3194 704.2941,347.5742 722.8141,371.6842" fill="none" id="Main Thread-to-Worker Thread N" style="stroke:#000000;stroke-width:1;"/><polygon fill="#000000" points="725.86,375.6494,723.5496,366.0753,722.8141,371.6842,717.2053,370.9487,725.86,375.6494" style="stroke:#000000;stroke-width:1;stroke-linejoin:miter;stroke-miterlimit:10;"/><text fill="#000000" font-family="Verdana" font-size="13" lengthAdjust="spacing" textLength="109.3447" x="702.55" y="341.8663">pthread_create()</text></g><!--link Worker Thread 1 to Validator--><g class="link" data-entity-1="ent0021" data-entity-2="ent0025" data-link-type="dependency" data-source-line="32" id="lnk26"><path d="M550,422.5394 C550,440.3094 550,459.9394 550,477.6994" fill="none" id="Worker Thread 1-to-Validator" style="stroke:#000000;stroke-width:1;"/><polygon fill="#000000" points="550,482.6994,554,473.6994,550,477.6994,546,473.6994,550,482.6994" style="stroke:#000000;stroke-width:1;stroke-linejoin:miter;stroke-miterlimit:10;"/></g><!--link Worker Thread N to Validator--><g class="link" data-entity-1="ent0023" data-entity-2="ent0025" data-link-type="dependency" data-source-line="33" id="lnk27"><path d="M701.6,422.5394 C669.03,440.3094 628.2692,462.5445 595.7192,480.3045" fill="none" id="Worker Thread N-to-Validator" style="stroke:#000000;stroke-width:1;"/><polygon fill="#000000" points="591.33,482.6994,601.1464,481.9,595.7192,480.3045,597.3146,474.8774,591.33,482.6994" style="stroke:#000000;stroke-width:1;stroke-linejoin:miter;stroke-miterlimit:10;"/></g><!--link Validator to MySQL\n(pg_gateway)--><g class="link" data-entity-1="ent0025" data-entity-2="ent0011" data-link-type="dependency" data-source-line="34" id="lnk28"><path d="M550,529.5194 C550,543.8294 550,563.8156 550,585.8177 C550,596.8187 550,608.3236 550,619.875 C550,625.6507 550,631.4379 550,637.1796 C550,638.615 550,640.0476 550,641.4764 C550,641.8336 550,637.1906 550,637.5473" fill="none" id="Validator-to-MySQL\n(pg_gateway)" style="stroke:#000000;stroke-width:1;"/><polygon fill="#000000" points="550,642.5473,554,633.5473,550,637.5473,546,633.5473,550,642.5473" style="stroke:#000000;stroke-width:1;stroke-linejoin:miter;stroke-miterlimit:10;"/><text fill="#000000" font-family="Verdana" font-size="13" lengthAdjust="spacing" textLength="137.0332" x="551" y="572.4663">blacklist / limit check</text></g><!--link Validator to Mutex--><g class="link" data-entity-1="ent0025" data-entity-2="ent0029" data-link-type="dependency" data-source-line="35" id="lnk30"><path d="M498.02,509.3894 C434.75,514.3894 327.31,530.8094 254,584.3994 C207.06,618.7094 179.0528,678.2896 165.8028,712.3496" fill="none" id="Validator-to-Mutex" style="stroke:#000000;stroke-width:1;"/><polygon fill="#000000" points="163.99,717.0094,170.9808,710.0719,165.8028,712.3496,163.5251,707.1715,163.99,717.0094" style="stroke:#000000;stroke-width:1;stroke-linejoin:miter;stroke-miterlimit:10;"/><text fill="#000000" font-family="Verdana" font-size="13" lengthAdjust="spacing" textLength="150.0015" x="289.96" y="572.4663">txn cache (mutex lock)</text></g><!--link Worker Thread 1 to Logger--><g class="link" data-entity-1="ent0021" data-entity-2="ent0031" data-link-type="dependency" data-source-line="36" id="lnk32"><path d="M591.4,422.5394 C623.97,440.3094 664.7308,462.5445 697.2808,480.3045" fill="none" id="Worker Thread 1-to-Logger" style="stroke:#000000;stroke-width:1;"/><polygon fill="#000000" points="701.67,482.6994,695.6854,474.8774,697.2808,480.3045,691.8536,481.9,701.67,482.6994" style="stroke:#000000;stroke-width:1;stroke-linejoin:miter;stroke-miterlimit:10;"/></g><!--link Worker Thread N to Logger--><g class="link" data-entity-1="ent0023" data-entity-2="ent0031" data-link-type="dependency" data-source-line="37" id="lnk33"><path d="M743,422.5394 C743,440.3094 743,459.9394 743,477.6994" fill="none" id="Worker Thread N-to-Logger" style="stroke:#000000;stroke-width:1;"/><polygon fill="#000000" points="743,482.6994,747,473.6994,743,477.6994,739,473.6994,743,482.6994" style="stroke:#000000;stroke-width:1;stroke-linejoin:miter;stroke-miterlimit:10;"/></g><!--link Logger to Log Files--><g class="link" data-entity-1="ent0031" data-entity-2="ent0015" data-link-type="dependency" data-source-line="38" id="lnk34"><path d="M787.58,514.0794 C828.62,522.8794 887.73,542.3794 919,584.3994 C929.2075,598.1144 935.5419,614.475 939.2913,631.3484 C941.1659,639.7852 942.3944,648.3501 943.1376,656.7766 C943.5092,660.9899 943.7595,665.1685 943.9086,669.2793 C943.9459,670.3069 943.9768,671.3304 944.0018,672.3491 C944.0142,672.8584 943.9314,690.6643 943.9409,691.1712" fill="none" id="Logger-to-Log Files" style="stroke:#000000;stroke-width:1;"/><polygon fill="#000000" points="944.0347,696.1703,947.8652,687.0969,943.9409,691.1712,939.8666,687.2469,944.0347,696.1703" style="stroke:#000000;stroke-width:1;stroke-linejoin:miter;stroke-miterlimit:10;"/></g><?plantuml-src ZL9DIyD04BtdLumzjOSgNZq8Qj6B4QL54Grbt8p9qiq7kzFQ8ltlJhP9-f4MtCCol7dlPIPlppYbZA0qgFE0DHk2JETwM2R319b-S0NZbMFAuCQgL3CfdbiAWXBL31E2tftHb7CFVWEGyp4Xnx31FlE-yiMv6aJ1UaVpq3YJNP1jjQ7C09FK4iQYHQMeP315KOhS4zuAEoDRK-1II2Nx-ZZXgKjuHQDZvC9AQz7KVZxVVYoIXAgUySMs4SwPbeAx52t5OCaLSwleOA-nc4dHB2Jc-8LE6k5g_F9OJPDCwxywQ4ZU_ik8XT6EeoqMepQhgT6PtaNPOkvGiIvoju7N_lukJ2oRzsG3kDU6t9x_kvmm78tEPQyTCx9Mjc-nTRNCRe8H38VNUxb4S0MJksVet-eShIJ8Tgvu4EnplEeWh4fPXp5LSZFr_o5xEYxhU7jf6suKT6qwZ6rTRzdDgFfu6mrSW0y3L4fgTaHVFP5AmSiS50eB-bc5oHDMivD3RvxSoOdRTbsqw2RbAFW3?></g></svg>