<svg xmlns="http://www.w3.org/2000/svg" xmlns:xlink="http://www.w3.org/1999/xlink" contentStyleType="text/css" data-diagram-type="DESCRIPTION" height="443px" preserveAspectRatio="none" style="width:1551px;height:443px;background:#FFFFFF;" version="1.1" viewBox="0 0 1551 443" width="1551px" zoomAndPan="magnify"><?plantuml 1.2026.6?><defs/><g><g class="title" data-source-line="2"><text fill="#000000" font-family="Verdana" font-size="22" font-weight="700" lengthAdjust="spacing" textLength="249.2402" x="650.1917" y="35.4209">Thread Architecture</text></g><!--cluster Main Thread--><g class="cluster" data-qualified-name="Main Thread" data-source-line="4" id="ent0001"><path d="M567.5,57.6094 L666.9033,57.6094 A3.75,3.75 0 0 1 669.4033,60.1094 L676.4033,79.9063 L1074.5,79.9063 A2.5,2.5 0 0 1 1077,82.4063 L1077,142.8594 A2.5,2.5 0 0 1 1074.5,145.3594 L567.5,145.3594 A2.5,2.5 0 0 1 565,142.8594 L565,60.1094 A2.5,2.5 0 0 1 567.5,57.6094" fill="#FFFFFF" style="stroke:#000000;stroke-width:1;"/><line style="stroke:#000000;stroke-width:1;" x1="565" x2="676.4033" y1="79.9063" y2="79.9063"/><text fill="#000000" font-family="Verdana" font-size="14" font-weight="700" lengthAdjust="spacing" textLength="98.4033" x="569" y="72.6045">Main Thread</text></g><!--cluster Worker Thread 1--><g class="cluster" data-qualified-name="Worker Thread 1" data-source-line="10" id="ent0005"><path d="M13.5,194.3594 L147.0488,194.3594 A3.75,3.75 0 0 1 149.5488,196.8594 L156.5488,216.6563 L684.5,216.6563 A2.5,2.5 0 0 1 687,219.1563 L687,279.7694 A2.5,2.5 0 0 1 684.5,282.2694 L13.5,282.2694 A2.5,2.5 0 0 1 11,279.7694 L11,196.8594 A2.5,2.5 0 0 1 13.5,194.3594" fill="#FFFFFF" style="stroke:#000000;stroke-width:1;"/><line style="stroke:#000000;stroke-width:1;" x1="11" x2="156.5488" y1="216.6563" y2="216.6563"/><text fill="#000000" font-family="Verdana" font-size="14" font-weight="700" lengthAdjust="spacing" textLength="132.5488" x="15" y="209.3545">Worker Thread 1</text></g><!--cluster Worker Thread N--><g class="cluster" data-qualified-name="Worker Thread N" data-source-line="17" id="ent0010"><path d="M713.5,194.3594 L849.0244,194.3594 A3.75,3.75 0 0 1 851.5244,196.8594 L858.5244,216.6563 L1384.5,216.6563 A2.5,2.5 0 0 1 1387,219.1563 L1387,279.7694 A2.5,2.5 0 0 1 1384.5,282.2694 L713.5,282.2694 A2.5,2.5 0 0 1 711,279.7694 L711,196.8594 A2.5,2.5 0 0 1 713.5,194.3594" fill="#FFFFFF" style="stroke:#000000;stroke-width:1;"/><line style="stroke:#000000;stroke-width:1;" x1="711" x2="858.5244" y1="216.6563" y2="216.6563"/><text fill="#000000" font-family="Verdana" font-size="14" font-weight="700" lengthAdjust="spacing" textLength="134.5244" x="715" y="209.3545">Worker Thread N</text></g><!--cluster Shared Resource (Mutex ??)--><g class="cluster" data-qualified-name="Shared Resource .Mutex ..." data-source-line="24" id="ent0015"><path d="M836.5,331.2694 L1059.6475,331.2694 A3.75,3.75 0 0 1 1062.1475,333.7694 L1069.1475,353.5663 L1254.5,353.5663 A2.5,2.5 0 0 1 1257,356.0663 L1257,426.0194 A2.5,2.5 0 0 1 1254.5,428.5194 L836.5,428.5194 A2.5,2.5 0 0 1 834,426.0194 L834,333.7694 A2.5,2.5 0 0 1 836.5,331.2694" fill="#FFFFFF" style="stroke:#000000;stroke-width:1;"/><line style="stroke:#000000;stroke-width:1;" x1="834" x2="1069.1475" y1="353.5663" y2="353.5663"/><text fill="#000000" font-family="Verdana" font-size="14" font-weight="700" lengthAdjust="spacing" textLength="222.1475" x="838" y="346.2645">Shared Resource (Mutex &#48372;&#54840;)</text></g><!--entity bind--><g class="entity" data-qualified-name="Main Thread.bind" data-source-line="5" id="ent0002"><ellipse cx="642.0025" cy="110.9939" fill="#FFFFFF" rx="60.8725" ry="14.5745" style="stroke:#000000;stroke-width:1;"/><text fill="#000000" font-family="Verdana" font-size="14" lengthAdjust="spacing" textLength="82.2021" x="600.9014" y="115.6423">bind / listen</text></g><!--entity acceptloop--><g class="entity" data-qualified-name="Main Thread.acceptloop" data-source-line="6" id="ent0003"><ellipse cx="802" cy="110.9874" fill="#FFFFFF" rx="64.54" ry="15.308" style="stroke:#000000;stroke-width:1;"/><text fill="#000000" font-family="Verdana" font-size="14" lengthAdjust="spacing" textLength="92.2441" x="755.8779" y="115.6358">accept() loop</text></g><!--entity cntcheck--><g class="entity" data-qualified-name="Main Thread.cntcheck" data-source-line="7" id="ent0004"><ellipse cx="980.998" cy="110.985" fill="#FFFFFF" rx="79.878" ry="18.3756" style="stroke:#000000;stroke-width:1;"/><text fill="#000000" font-family="Verdana" font-size="14" lengthAdjust="spacing" textLength="130.3887" x="915.8037" y="115.6334">client_count check</text></g><!--entity recv1--><g class="entity" data-qualified-name="Worker Thread 1.recv1" data-source-line="11" id="ent0006"><ellipse cx="101.998" cy="247.817" fill="#FFFFFF" rx="74.538" ry="17.3076" style="stroke:#000000;stroke-width:1;"/><text fill="#000000" font-family="Verdana" font-size="14" lengthAdjust="spacing" textLength="117.6055" x="43.1953" y="252.4654">recv PayRequest</text></g><!--entity val1--><g class="entity" data-qualified-name="Worker Thread 1.val1" data-source-line="12" id="ent0007"><ellipse cx="253.9978" cy="247.823" fill="#FFFFFF" rx="42.7478" ry="14.5236" style="stroke:#000000;stroke-width:1;"/><text fill="#000000" font-family="Verdana" font-size="14" lengthAdjust="spacing" textLength="56.2119" x="225.8919" y="252.4714">validate</text></g><!--entity send1--><g class="entity" data-qualified-name="Worker Thread 1.send1" data-source-line="13" id="ent0008"><ellipse cx="412.001" cy="247.8216" fill="#FFFFFF" rx="80.261" ry="18.4522" style="stroke:#000000;stroke-width:1;"/><text fill="#000000" font-family="Verdana" font-size="14" lengthAdjust="spacing" textLength="131.291" x="346.3555" y="252.47">send PayResponse</text></g><!--entity det1--><g class="entity" data-qualified-name="Worker Thread 1.det1" data-source-line="14" id="ent0009"><ellipse cx="598.996" cy="247.8166" fill="#FFFFFF" rx="71.536" ry="16.7072" style="stroke:#000000;stroke-width:1;"/><text fill="#000000" font-family="Verdana" font-size="14" lengthAdjust="spacing" textLength="110.2227" x="543.8847" y="252.465">pthread_detach</text></g><!--entity recvN--><g class="entity" data-qualified-name="Worker Thread N.recvN" data-source-line="18" id="ent0011"><ellipse cx="801.998" cy="247.817" fill="#FFFFFF" rx="74.538" ry="17.3076" style="stroke:#000000;stroke-width:1;"/><text fill="#000000" font-family="Verdana" font-size="14" lengthAdjust="spacing" textLength="117.6055" x="743.1953" y="252.4654">recv PayRequest</text></g><!--entity valN--><g class="entity" data-qualified-name="Worker Thread N.valN" data-source-line="19" id="ent0012"><ellipse cx="953.9978" cy="247.823" fill="#FFFFFF" rx="42.7478" ry="14.5236" style="stroke:#000000;stroke-width:1;"/><text fill="#000000" font-family="Verdana" font-size="14" lengthAdjust="spacing" textLength="56.2119" x="925.8919" y="252.4714">validate</text></g><!--entity sendN--><g class="entity" data-qualified-name="Worker Thread N.sendN" data-source-line="20" id="ent0013"><ellipse cx="1112.001" cy="247.8216" fill="#FFFFFF" rx="80.261" ry="18.4522" style="stroke:#000000;stroke-width:1;"/><text fill="#000000" font-family="Verdana" font-size="14" lengthAdjust="spacing" textLength="131.291" x="1046.3555" y="252.47">send PayResponse</text></g><!--entity detN--><g class="entity" data-qualified-name="Worker Thread N.detN" data-source-line="21" id="ent0014"><ellipse cx="1298.996" cy="247.8166" fill="#FFFFFF" rx="71.536" ry="16.7072" style="stroke:#000000;stroke-width:1;"/><text fill="#000000" font-family="Verdana" font-size="14" lengthAdjust="spacing" textLength="110.2227" x="1243.8847" y="252.465">pthread_detach</text></g><!--entity cnt--><g class="entity" data-qualified-name="Shared Resource .Mutex ....cnt" data-source-line="25" id="ent0016"><ellipse cx="1166.9953" cy="389.3924" fill="#FFFFFF" rx="74.2153" ry="17.2431" style="stroke:#000000;stroke-width:1;"/><text fill="#000000" font-family="Verdana" font-size="14" lengthAdjust="spacing" textLength="116.8193" x="1108.5856" y="394.0409">client_count : int</text></g><!--entity cache--><g class="entity" data-qualified-name="Shared Resource .Mutex ....cache" data-source-line="26" id="ent0017"><ellipse cx="954.0016" cy="389.3857" fill="#FFFFFF" rx="103.6316" ry="23.1263" style="stroke:#000000;stroke-width:1;"/><text fill="#000000" font-family="Verdana" font-size="14" lengthAdjust="spacing" textLength="184.0303" x="861.9864" y="394.0341">txn_cache[1000] : char[][]</text></g><!--link acceptloop to recv1--><g class="link" data-entity-1="ent0003" data-entity-2="ent0006" data-link-type="dependency" data-source-line="29" id="lnk18"><path d="M780.7,125.7694 C764.69,135.3494 741.85,147.4294 720,153.3594 C606.97,184.0394 305.1,149.2994 194,186.3594 C165.72,195.7994 141.5948,212.9949 124.0548,227.4849" fill="none" id="acceptloop-to-recv1" style="stroke:#000000;stroke-width:1;"/><polygon fill="#000000" points="120.2,230.6694,129.6861,228.0211,124.0548,227.4849,124.591,221.8535,120.2,230.6694" style="stroke:#000000;stroke-width:1;stroke-linejoin:miter;stroke-miterlimit:10;"/><text fill="#000000" font-family="Verdana" font-size="13" lengthAdjust="spacing" textLength="109.3447" x="672.81" y="174.4263">pthread_create()</text></g><!--link acceptloop to recvN--><g class="link" data-entity-1="ent0003" data-entity-2="ent0011" data-link-type="dependency" data-source-line="30" id="lnk19"><path d="M802,126.6694 C802,151.9294 802,198.4194 802,225.0394" fill="none" id="acceptloop-to-recvN" style="stroke:#000000;stroke-width:1;"/><polygon fill="#000000" points="802,230.0394,806,221.0394,802,225.0394,798,221.0394,802,230.0394" style="stroke:#000000;stroke-width:1;stroke-linejoin:miter;stroke-miterlimit:10;"/><text fill="#000000" font-family="Verdana" font-size="13" lengthAdjust="spacing" textLength="109.3447" x="803" y="174.4263">pthread_create()</text></g><!--link cntcheck to cnt--><g class="link" data-entity-1="ent0004" data-entity-2="ent0016" data-link-type="dependency" data-source-line="31" id="lnk20"><path d="M1059.29,114.8294 C1165.33,120.4994 1346.11,137.2994 1387,186.3594 C1416.57,221.8394 1412.14,251.5294 1387,290.2694 C1352.28,343.7694 1285.7496,367.3044 1233.6696,378.4344" fill="none" id="cntcheck-to-cnt" style="stroke:#000000;stroke-width:1;stroke-dasharray:7,7;"/><polygon fill="#000000" points="1228.78,379.4794,1238.4172,381.5101,1233.6696,378.4344,1236.7453,373.6868,1228.78,379.4794" style="stroke:#000000;stroke-width:1;stroke-linejoin:miter;stroke-miterlimit:10;"/><text fill="#000000" font-family="Verdana" font-size="13" lengthAdjust="spacing" textLength="127.0737" x="1408.55" y="252.3863">mutex_client_count</text></g><!--link val1 to cache--><g class="link" data-entity-1="ent0007" data-entity-2="ent0017" data-link-type="dependency" data-source-line="32" id="lnk21"><path d="M268.68,261.8094 C280.19,271.2594 297.06,283.5294 314,290.2694 C493.8,361.7394 716.1441,381.2571 845.8241,386.5071" fill="none" id="val1-to-cache" style="stroke:#000000;stroke-width:1;stroke-dasharray:7,7;"/><polygon fill="#000000" points="850.82,386.7094,841.9892,382.3486,845.8241,386.5071,841.6656,390.342,850.82,386.7094" style="stroke:#000000;stroke-width:1;stroke-linejoin:miter;stroke-miterlimit:10;"/><text fill="#000000" font-family="Verdana" font-size="13" lengthAdjust="spacing" textLength="114.2197" x="380.95" y="311.3363">mutex_txn_cache</text></g><!--link valN to cache--><g class="link" data-entity-1="ent0012" data-entity-2="ent0017" data-link-type="dependency" data-source-line="33" id="lnk22"><path d="M954,262.7094 C954,286.8394 954,331.7094 954,360.8594" fill="none" id="valN-to-cache" style="stroke:#000000;stroke-width:1;stroke-dasharray:7,7;"/><polygon fill="#000000" points="954,365.8594,958,356.8594,954,360.8594,950,356.8594,954,365.8594" style="stroke:#000000;stroke-width:1;stroke-linejoin:miter;stroke-miterlimit:10;"/><text fill="#000000" font-family="Verdana" font-size="13" lengthAdjust="spacing" textLength="114.2197" x="955" y="311.3363">mutex_txn_cache</text></g><?plantuml-src ZPB1JiCm343l_GgpqthOMAyS9l41Yn0WSQYcAhWMZTQb9N6d8SH_y1zmu9yG_q2Iqh5kqzGUejf-SfxbN711QuAwb4f7hBWak2yCoHok3HQA2Ran54Mrn9Ly8XWj7FY7ZE0r0lSrbb1QLtjKEeTBA9LbqYEG5docpqX4gdaSGrbLTM3QZ0_x99QAD6TODPe12y9Lm55p2AAtFQk7ogp8TEh9aPaXtC2DVBcbvuOiXqO-b_InZInLBfb2tGK7PKjklj35rfMsBUQJ1rpDmIFBYIKMWNA_oHbZCTXOd3SM0ut546FHCxuhfA4SNAkgCKWmNZHCM_Z--Fnv_ugF1kYjxmgKvcvzVOwtEaDtAQN9R3PREXJTHUaoNRQyBtcF_sS2aycytPw3EtDq9zCuFiM9KrptZc0wdNihnwpzGDc-UEGVGKjuZnspa_Q0E0ly0W00?></g></svg>